<svg width="151" height="38" viewBox="0 0 151 38" fill="none" xmlns="http://www.w3.org/2000/svg">
<circle cx="19" cy="19" r="19" fill="#2966FF"/>
<rect x="17.1074" y="11.7786" width="2.52399" height="2.94465" fill="#FFF6F6"/>
<rect x="17.1074" y="17.107" width="2.52399" height="7.99262" fill="#FFF6F6"/>
<rect x="24.1719" y="24.4583" width="2.52399" height="7.0434" transform="rotate(90.486 24.1719 24.4583)" fill="#FFF6F6"/>
<rect x="21.6172" y="20.893" width="2.52399" height="2.90183" transform="rotate(0.43802 21.6172 20.893)" fill="#FFF6F6"/>
<rect x="13.8965" y="17.127" width="2.52399" height="3.36199" transform="rotate(-90.3405 13.8965 17.127)" fill="#FFF6F6"/>
<rect x="19.5059" y="17.127" width="2.52399" height="3.36199" transform="rotate(-90.3405 19.5059 17.127)" fill="#FFF6F6"/>
<path d="M56.589 27.264C55.165 27.264 54.109 26.824 53.421 25.944C52.733 25.064 52.421 23.856 52.485 22.32L52.677 16.128L49.293 16.128L49.293 14.76L50.397 14.76C51.133 14.76 51.709 14.672 52.125 14.496C52.557 14.32 52.861 14.04 53.037 13.656C53.229 13.272 53.325 12.776 53.325 12.168L53.325 11.352L54.957 11.352L54.957 22.872C54.957 23.64 55.125 24.248 55.461 24.696C55.813 25.144 56.341 25.368 57.045 25.368C57.749 25.368 58.261 25.152 58.581 24.72C58.917 24.272 59.085 23.656 59.085 22.872L59.085 20.376L60.717 20.376L60.717 22.848C60.717 24.224 60.373 25.304 59.685 26.088C59.013 26.872 57.981 27.264 56.589 27.264ZM54.957 16.128L54.957 14.664L61.077 14.664L61.077 16.128L54.957 16.128ZM65.8997 18.84C65.4677 18.84 65.0757 18.712 64.7237 18.456C64.3877 18.2 64.2197 17.808 64.2197 17.28C64.2197 16.64 64.4677 16.112 64.9637 15.696C65.4757 15.28 66.1317 14.968 66.9317 14.76C67.7477 14.536 68.6117 14.424 69.5237 14.424C70.9957 14.424 72.1317 14.72 72.9317 15.312C73.7477 15.904 74.1477 16.8 74.1317 18L71.8277 17.64C71.8277 17 71.5877 16.512 71.1077 16.176C70.6437 15.84 69.9477 15.672 69.0197 15.672C68.4597 15.672 67.9237 15.736 67.4117 15.864C66.8997 15.992 66.4837 16.2 66.1637 16.488C65.8437 16.76 65.6597 17.136 65.6117 17.616L65.5877 16.488C66.0997 16.504 66.5077 16.608 66.8117 16.8C67.1317 16.992 67.2837 17.288 67.2677 17.688C67.2517 18.04 67.1237 18.32 66.8837 18.528C66.6437 18.736 66.3157 18.84 65.8997 18.84ZM75.2117 27.24C74.2037 27.24 73.4277 26.96 72.8837 26.4C72.3557 25.824 72.0917 25.024 72.0917 24L72.0917 23.184L71.8277 23.184L71.8277 19.68L71.6837 19.68L71.8277 18.624L71.8277 17.64L74.1317 18L74.1317 24.192C74.1317 24.608 74.2357 24.96 74.4437 25.248C74.6677 25.52 74.9877 25.656 75.4037 25.656C75.8197 25.656 76.1317 25.52 76.3397 25.248C76.5637 24.96 76.6757 24.608 76.6757 24.192L76.6757 20.592L78.2837 20.592L78.2837 24.024C78.2837 25.032 78.0197 25.824 77.4917 26.4C76.9797 26.96 76.2197 27.24 75.2117 27.24ZM67.4597 27.24C66.2437 27.24 65.2517 26.952 64.4837 26.376C63.7157 25.784 63.3317 24.968 63.3317 23.928C63.3317 23.192 63.4917 22.592 63.8117 22.128C64.1477 21.648 64.6037 21.272 65.1797 21C65.7557 20.712 66.4197 20.488 67.1717 20.328L69.1877 19.896C69.6837 19.8 70.1317 19.672 70.5317 19.512C70.9317 19.336 71.2437 19.096 71.4677 18.792C71.7077 18.488 71.8277 18.104 71.8277 17.64L71.8997 19.68L71.8277 19.68C71.6677 20.032 71.3877 20.32 70.9877 20.544C70.6037 20.768 70.1157 20.944 69.5237 21.072L68.4677 21.288C67.9877 21.4 67.5477 21.544 67.1477 21.72C66.7477 21.88 66.4277 22.096 66.1877 22.368C65.9637 22.64 65.8517 23.008 65.8517 23.472C65.8517 24.112 66.0757 24.608 66.5237 24.96C66.9877 25.296 67.6117 25.464 68.3957 25.464C69.0037 25.464 69.5637 25.336 70.0757 25.08C70.6037 24.808 71.0277 24.384 71.3477 23.808C71.6677 23.216 71.8277 22.44 71.8277 21.48L72.4997 21.552C72.4997 22.912 72.2757 24.016 71.8277 24.864C71.3957 25.696 70.7957 26.304 70.0277 26.688C69.2597 27.056 68.4037 27.24 67.4597 27.24ZM79.6084 27L79.6084 25.728L81.6724 25.728L81.6724 11.04L79.8004 11.04L79.8004 9.768L84.1444 9.768L84.1444 25.728L86.0164 25.728L86.0164 27L79.6084 27ZM93.8177 27.264C92.7137 27.264 91.7297 27.016 90.8657 26.52C90.0017 26.008 89.3217 25.272 88.8257 24.312C88.3297 23.336 88.0817 22.176 88.0817 20.832C88.0817 19.456 88.3297 18.296 88.8257 17.352C89.3217 16.392 89.9937 15.664 90.8417 15.168C91.7057 14.656 92.6977 14.4 93.8177 14.4C95.0017 14.4 95.9777 14.656 96.7457 15.168C97.5297 15.68 98.1057 16.416 98.4737 17.376C98.8577 18.336 99.0497 19.472 99.0497 20.784L99.1937 20.832C99.1937 22.144 98.9937 23.288 98.5937 24.264C98.1937 25.224 97.5937 25.968 96.7937 26.496C96.0097 27.008 95.0177 27.264 93.8177 27.264ZM94.6337 25.632C95.4017 25.632 96.0817 25.448 96.6737 25.08C97.2657 24.712 97.7297 24.168 98.0657 23.448C98.4017 22.728 98.5697 21.856 98.5697 20.832C98.5697 19.792 98.4017 18.92 98.0657 18.216C97.7297 17.496 97.2657 16.952 96.6737 16.584C96.0817 16.2 95.4017 16.008 94.6337 16.008C93.8497 16.008 93.1617 16.2 92.5697 16.584C91.9937 16.952 91.5377 17.496 91.2017 18.216C90.8817 18.92 90.7217 19.792 90.7217 20.832C90.7217 21.856 90.8817 22.728 91.2017 23.448C91.5377 24.168 91.9937 24.712 92.5697 25.08C93.1617 25.448 93.8497 25.632 94.6337 25.632ZM98.6417 27L98.6417 23.712L98.9297 20.808L98.4257 18.336L98.4257 11.04L96.5537 11.04L96.5537 9.768L100.898 9.768L100.898 25.728L102.794 25.728L102.794 27L98.6417 27ZM104.502 27L104.502 25.728L106.638 25.728L106.638 15.912L104.718 15.912L104.718 14.664L109.086 14.664L109.086 25.728L110.982 25.728L110.982 27L104.502 27ZM107.742 13.008C107.246 13.008 106.838 12.864 106.518 12.576C106.214 12.288 106.062 11.912 106.062 11.448C106.062 10.984 106.214 10.616 106.518 10.344C106.838 10.072 107.246 9.936 107.742 9.936C108.222 9.936 108.614 10.072 108.918 10.344C109.222 10.6 109.374 10.968 109.374 11.448C109.374 11.912 109.222 12.288 108.918 12.576C108.614 12.864 108.222 13.008 107.742 13.008ZM118.396 27.24C117.564 27.24 116.828 27.096 116.188 26.808C115.564 26.52 115.068 26.064 114.7 25.44C114.332 24.816 114.148 24.016 114.148 23.04L114.148 15.912L112.348 15.912L112.348 14.664L116.596 14.664L116.596 22.992C116.596 23.888 116.836 24.536 117.316 24.936C117.812 25.32 118.468 25.512 119.284 25.512C119.876 25.512 120.428 25.384 120.94 25.128C121.452 24.856 121.868 24.424 122.188 23.832C122.508 23.24 122.668 22.488 122.668 21.576L123.244 21.528C123.244 22.824 123.06 23.896 122.692 24.744C122.34 25.576 121.804 26.2 121.084 26.616C120.364 27.032 119.468 27.24 118.396 27.24ZM122.932 27L122.932 22.728L122.668 22.776L122.668 15.912L120.652 15.912L120.652 14.664L125.14 14.664L125.14 25.728L127.012 25.728L127.012 27L122.932 27ZM128.713 27L128.713 25.728L130.849 25.728L130.849 15.912L128.929 15.912L128.929 14.664L132.985 14.664L132.985 18.864L133.297 18.816L133.297 25.752L134.881 25.752L134.881 27L128.713 27ZM136.561 27L136.561 25.728L138.169 25.728L138.169 18.432C138.169 17.648 137.969 17.08 137.569 16.728C137.185 16.36 136.665 16.176 136.009 16.176C135.545 16.176 135.105 16.288 134.689 16.512C134.273 16.736 133.937 17.088 133.681 17.568C133.425 18.032 133.297 18.656 133.297 19.44L132.721 19.44C132.721 18.352 132.873 17.44 133.177 16.704C133.481 15.968 133.945 15.416 134.569 15.048C135.193 14.664 135.969 14.472 136.897 14.472C138.001 14.472 138.897 14.776 139.585 15.384C140.273 15.992 140.617 16.992 140.617 18.384L140.617 25.728L142.201 25.728L142.201 27L136.561 27ZM143.905 27L143.905 25.728L145.489 25.728L145.489 18.432C145.489 17.648 145.289 17.08 144.889 16.728C144.505 16.36 143.977 16.176 143.305 16.176C142.841 16.176 142.401 16.288 141.985 16.512C141.585 16.736 141.257 17.088 141.001 17.568C140.745 18.032 140.617 18.656 140.617 19.44L140.137 19.44C140.137 18.352 140.289 17.44 140.593 16.704C140.897 15.968 141.353 15.416 141.961 15.048C142.569 14.664 143.337 14.472 144.265 14.472C145.353 14.472 146.233 14.776 146.905 15.384C147.593 15.992 147.937 16.992 147.937 18.384L147.937 25.752L149.617 25.752L149.617 27L143.905 27Z" fill="white"/>
</svg>
